<!-- Generator: Adobe Illustrator 19.1.0, SVG Export Plug-In  -->
<svg version="1.1"
   xmlns="http://www.w3.org/2000/svg" xmlns:xlink="http://www.w3.org/1999/xlink" xmlns:a="http://ns.adobe.com/AdobeSVGViewerExtensions/3.0/"
   x="0px" y="0px" width="52.001px" height="48.001px" viewBox="0 0 52.001 48.001" enable-background="new 0 0 52.001 48.001"
   xml:space="preserve">
<defs>
</defs>
<path fill="#fdfdfd" d="M52.001,35v10c0,1.657-1.343,3-3,3h-46c-0.8,0.017-1.571-0.298-2.13-0.87C0.298,46.571-0.017,45.8,0.001,45
  V35c-0.017-0.8,0.298-1.571,0.87-2.13c0.559-0.572,1.33-0.887,2.13-0.87h14.53l4.22,4.25c2.339,2.347,6.138,2.354,8.485,0.015
  c0.005-0.005,0.01-0.01,0.015-0.015l4.25-4.25h14.5C50.658,32,52.001,33.343,52.001,35z M41.841,17.22
  c0.379,0.744,0.197,1.65-0.44,2.19l-14,14c-0.779,0.769-2.031,0.769-2.81,0l-14-14c-0.637-0.54-0.819-1.446-0.44-2.19
  c0.283-0.768,1.033-1.262,1.85-1.22h8V2c-0.007-0.531,0.207-1.042,0.59-1.41c0.368-0.383,0.879-0.597,1.41-0.59h8
  c0.531-0.007,1.042,0.207,1.41,0.59c0.383,0.368,0.597,0.879,0.59,1.41v14h8C40.814,15.963,41.558,16.456,41.841,17.22z
   M39.411,43.41c0.779-0.783,0.775-2.05-0.008-2.828c-0.783-0.779-2.05-0.775-2.828,0.008c-0.779,0.783-0.775,2.05,0.008,2.828
  c0.377,0.375,0.887,0.584,1.418,0.582C38.532,44.006,39.042,43.792,39.411,43.41z M47.411,43.41c0.779-0.783,0.775-2.05-0.008-2.828
  c-0.783-0.779-2.05-0.775-2.828,0.008c-0.779,0.783-0.775,2.05,0.008,2.828c0.377,0.375,0.887,0.584,1.418,0.582
  C46.532,44.007,47.043,43.793,47.411,43.41z"/>
</svg>
