<?xml version="1.0" encoding="utf-8"?>
<!-- Generator: Adobe Illustrator 19.1.0, SVG Export Plug-In . SVG Version: 6.00 Build 0)  -->
<svg version="1.1" id="Layer_1" xmlns="http://www.w3.org/2000/svg" xmlns:xlink="http://www.w3.org/1999/xlink" x="0px" y="0px"
	 viewBox="0 0 32.255 30.845" enable-background="new 0 0 32.255 30.845" xml:space="preserve">
<g>
	<polyline fill="#4d4d4d" points="10.585,0 15.628,2.911 15.628,8.734 10.585,11.645 5.543,8.734 5.543,2.911 10.585,0 	"/>
	<polyline fill="#4d4d4d" points="5.043,9.6 10.085,12.511 10.085,18.334 5.043,21.245 0,18.334 0,12.511 5.043,9.6 	"/>
	<polyline fill="#4d4d4d" points="10.585,19.2 15.628,22.111 15.628,27.934 10.585,30.845 5.543,27.934 5.543,22.111 10.585,19.2
		"/>
	<polyline fill="#4d4d4d" points="21.67,0 26.713,2.911 26.713,8.734 21.67,11.645 16.628,8.734 16.628,2.911 21.67,0 	"/>
	<polyline fill="#4d4d4d" points="16.128,9.6 21.17,12.511 21.17,18.334 16.128,21.245 11.085,18.334 11.085,12.511 16.128,9.6 	"/>
	<polyline fill="#4d4d4d" points="21.67,19.2 26.713,22.111 26.713,27.934 21.67,30.845 16.628,27.934 16.628,22.111 21.67,19.2
		"/>
	<polyline fill="#4d4d4d" points="27.213,9.6 32.255,12.511 32.255,18.334 27.213,21.245 22.17,18.334 22.17,12.511 27.213,9.6 	"/>
</g>
</svg>
