<?xml version="1.0" encoding="utf-8"?>
<!-- Generator: Adobe Illustrator 19.1.0, SVG Export Plug-In . SVG Version: 6.00 Build 0)  -->
<svg version="1.1" id="Layer_1" xmlns="http://www.w3.org/2000/svg" xmlns:xlink="http://www.w3.org/1999/xlink" x="0px" y="0px"
	 viewBox="0 0 20 20" style="enable-background:new 0 0 20 20;" xml:space="preserve">
<style type="text/css">
	.st0{fill:#FFFFFF;}
</style>
<path class="st0" d="M18,0H2C0.9,0,0,0.9,0,2l0,16c0,1.1,0.9,2,2,2h16c1.1,0,2-0.9,2-2V2C20,0.9,19.1,0,18,0 M15.7,7.3
	c-0.1,4.6-3,7.8-7.4,8c-1.8,0.1-3.1-0.5-4.3-1.2c1.3,0.2,3-0.3,3.9-1.1c-1.3-0.1-2.1-0.8-2.5-1.9c0.4,0.1,0.8,0,1.1,0
	c-1.2-0.4-2-1.1-2.1-2.7c0.3,0.2,0.7,0.3,1.1,0.3C4.8,8.2,4.1,6.4,4.9,5.2c1.3,1.4,2.9,2.6,5.5,2.8C9.7,5.2,13.4,3.6,15,5.5
	c0.7-0.1,1.2-0.4,1.7-0.6c-0.2,0.6-0.6,1.1-1.1,1.5c0.5-0.1,1-0.2,1.4-0.4C16.7,6.5,16.2,6.9,15.7,7.3"/>
</svg>
